<mxfile host="app.diagrams.net" modified="2024-03-31T19:05:58.791Z" agent="Mozilla/5.0 (Windows NT 10.0; Win64; x64) AppleWebKit/537.36 (KHTML, like Gecko) Chrome/123.0.0.0 Safari/537.36" etag="oLGTjFiW-j8LmEYeZxeX" version="22.1.21" type="device">
  <diagram name="Page-1" id="ywZkNVrr_P0-ALGglUy4">
    <mxGraphModel dx="1434" dy="746" grid="1" gridSize="10" guides="1" tooltips="1" connect="1" arrows="1" fold="1" page="1" pageScale="1" pageWidth="850" pageHeight="1100" background="none" math="0" shadow="0">
      <root>
        <mxCell id="0" />
        <mxCell id="1" parent="0" />
        <mxCell id="JlhMlqs5VJqomyMm_BVr-2" value="Arduino Mega" style="rounded=0;whiteSpace=wrap;html=1;" vertex="1" parent="1">
          <mxGeometry x="200" y="380" width="430" height="120" as="geometry" />
        </mxCell>
        <mxCell id="JlhMlqs5VJqomyMm_BVr-3" value="&lt;font style=&quot;&quot;&gt;&lt;font style=&quot;font-size: 18px;&quot;&gt;+&lt;/font&gt;&lt;br&gt;&lt;br&gt;&lt;span style=&quot;font-size: 12px;&quot;&gt;12V&lt;/span&gt;&lt;br&gt;&lt;br&gt;&lt;font style=&quot;font-size: 18px;&quot;&gt;-&lt;/font&gt;&lt;/font&gt;" style="ellipse;whiteSpace=wrap;html=1;aspect=fixed;" vertex="1" parent="1">
          <mxGeometry x="40" y="240" width="80" height="80" as="geometry" />
        </mxCell>
        <mxCell id="JlhMlqs5VJqomyMm_BVr-4" value="H Bridge" style="rounded=0;whiteSpace=wrap;html=1;" vertex="1" parent="1">
          <mxGeometry x="200" y="120" width="235" height="60" as="geometry" />
        </mxCell>
        <mxCell id="JlhMlqs5VJqomyMm_BVr-7" value="12V-to-5V DC/DC" style="rounded=0;whiteSpace=wrap;html=1;" vertex="1" parent="1">
          <mxGeometry x="270" y="250" width="80" height="60" as="geometry" />
        </mxCell>
        <mxCell id="JlhMlqs5VJqomyMm_BVr-8" value="" style="endArrow=none;html=1;rounded=0;strokeWidth=3;" edge="1" parent="1">
          <mxGeometry width="50" height="50" relative="1" as="geometry">
            <mxPoint x="270" y="290" as="sourcePoint" />
            <mxPoint x="140" y="290" as="targetPoint" />
          </mxGeometry>
        </mxCell>
        <mxCell id="JlhMlqs5VJqomyMm_BVr-9" value="" style="endArrow=none;html=1;rounded=0;strokeWidth=3;strokeColor=#ff0000;" edge="1" parent="1">
          <mxGeometry width="50" height="50" relative="1" as="geometry">
            <mxPoint x="270" y="270" as="sourcePoint" />
            <mxPoint x="140" y="270" as="targetPoint" />
          </mxGeometry>
        </mxCell>
        <mxCell id="JlhMlqs5VJqomyMm_BVr-10" value="" style="endArrow=none;html=1;rounded=0;strokeWidth=2;strokeColor=#ff0000;" edge="1" parent="1" source="JlhMlqs5VJqomyMm_BVr-55">
          <mxGeometry width="50" height="50" relative="1" as="geometry">
            <mxPoint x="800" y="270" as="sourcePoint" />
            <mxPoint x="350" y="269.5" as="targetPoint" />
          </mxGeometry>
        </mxCell>
        <mxCell id="JlhMlqs5VJqomyMm_BVr-11" value="" style="endArrow=none;html=1;rounded=0;exitDx=0;exitDy=0;strokeWidth=2;exitPerimeter=0;" edge="1" parent="1" source="JlhMlqs5VJqomyMm_BVr-64">
          <mxGeometry width="50" height="50" relative="1" as="geometry">
            <mxPoint x="350" y="289.5" as="sourcePoint" />
            <mxPoint x="800" y="290" as="targetPoint" />
          </mxGeometry>
        </mxCell>
        <mxCell id="JlhMlqs5VJqomyMm_BVr-13" value="X DC Motor" style="ellipse;whiteSpace=wrap;html=1;aspect=fixed;" vertex="1" parent="1">
          <mxGeometry x="40" y="110" width="80" height="80" as="geometry" />
        </mxCell>
        <mxCell id="JlhMlqs5VJqomyMm_BVr-14" value="" style="endArrow=none;html=1;rounded=0;strokeWidth=3;strokeColor=#ff0000;" edge="1" parent="1">
          <mxGeometry width="50" height="50" relative="1" as="geometry">
            <mxPoint x="200" y="140" as="sourcePoint" />
            <mxPoint x="120" y="140" as="targetPoint" />
          </mxGeometry>
        </mxCell>
        <mxCell id="JlhMlqs5VJqomyMm_BVr-15" value="" style="endArrow=none;html=1;rounded=0;strokeWidth=3;strokeColor=#000000;" edge="1" parent="1">
          <mxGeometry width="50" height="50" relative="1" as="geometry">
            <mxPoint x="200" y="160" as="sourcePoint" />
            <mxPoint x="120" y="160" as="targetPoint" />
          </mxGeometry>
        </mxCell>
        <mxCell id="JlhMlqs5VJqomyMm_BVr-18" value="" style="endArrow=none;html=1;rounded=0;strokeWidth=2;strokeColor=#ff0000;targetPerimeterSpacing=0;" edge="1" parent="1" source="JlhMlqs5VJqomyMm_BVr-30">
          <mxGeometry width="50" height="50" relative="1" as="geometry">
            <mxPoint x="377" y="270" as="sourcePoint" />
            <mxPoint x="377" y="180" as="targetPoint" />
          </mxGeometry>
        </mxCell>
        <mxCell id="JlhMlqs5VJqomyMm_BVr-19" value="" style="endArrow=none;html=1;rounded=0;strokeWidth=3;" edge="1" parent="1">
          <mxGeometry width="50" height="50" relative="1" as="geometry">
            <mxPoint x="249.5" y="380" as="sourcePoint" />
            <mxPoint x="249.5" y="180" as="targetPoint" />
          </mxGeometry>
        </mxCell>
        <mxCell id="JlhMlqs5VJqomyMm_BVr-26" value="" style="endArrow=none;dashed=1;html=1;dashPattern=1 3;strokeWidth=1;rounded=0;" edge="1" parent="1">
          <mxGeometry width="50" height="50" relative="1" as="geometry">
            <mxPoint x="161" y="520" as="sourcePoint" />
            <mxPoint x="161" y="50" as="targetPoint" />
          </mxGeometry>
        </mxCell>
        <mxCell id="JlhMlqs5VJqomyMm_BVr-27" value="" style="endArrow=none;html=1;rounded=0;strokeWidth=3;strokeColor=#ff0000;" edge="1" parent="1" source="JlhMlqs5VJqomyMm_BVr-28">
          <mxGeometry width="50" height="50" relative="1" as="geometry">
            <mxPoint x="230" y="380" as="sourcePoint" />
            <mxPoint x="230" y="270" as="targetPoint" />
          </mxGeometry>
        </mxCell>
        <mxCell id="JlhMlqs5VJqomyMm_BVr-29" value="" style="endArrow=none;html=1;rounded=0;strokeWidth=3;strokeColor=#ff0000;" edge="1" parent="1">
          <mxGeometry width="50" height="50" relative="1" as="geometry">
            <mxPoint x="229.5" y="380" as="sourcePoint" />
            <mxPoint x="229.5" y="180" as="targetPoint" />
          </mxGeometry>
        </mxCell>
        <mxCell id="JlhMlqs5VJqomyMm_BVr-28" value="" style="shape=waypoint;sketch=0;fillStyle=solid;size=6;pointerEvents=1;points=[];fillColor=none;resizable=0;rotatable=0;perimeter=centerPerimeter;snapToPoint=1;strokeColor=#ff0000;strokeWidth=3;" vertex="1" parent="1">
          <mxGeometry x="220" y="260" width="20" height="20" as="geometry" />
        </mxCell>
        <mxCell id="JlhMlqs5VJqomyMm_BVr-31" value="" style="endArrow=none;html=1;rounded=0;strokeWidth=3;strokeColor=#ff0000;targetPerimeterSpacing=0;" edge="1" parent="1" target="JlhMlqs5VJqomyMm_BVr-30">
          <mxGeometry width="50" height="50" relative="1" as="geometry">
            <mxPoint x="377" y="270" as="sourcePoint" />
            <mxPoint x="377" y="180" as="targetPoint" />
          </mxGeometry>
        </mxCell>
        <mxCell id="JlhMlqs5VJqomyMm_BVr-30" value="" style="shape=waypoint;sketch=0;fillStyle=solid;size=6;pointerEvents=1;points=[];fillColor=none;resizable=0;rotatable=0;perimeter=centerPerimeter;snapToPoint=1;strokeColor=#ff0000;strokeWidth=2;" vertex="1" parent="1">
          <mxGeometry x="367.5" y="260" width="20" height="20" as="geometry" />
        </mxCell>
        <mxCell id="JlhMlqs5VJqomyMm_BVr-32" value="" style="shape=waypoint;sketch=0;fillStyle=solid;size=6;pointerEvents=1;points=[];fillColor=none;resizable=0;rotatable=0;perimeter=centerPerimeter;snapToPoint=1;strokeColor=#000000;strokeWidth=3;" vertex="1" parent="1">
          <mxGeometry x="240" y="280" width="20" height="20" as="geometry" />
        </mxCell>
        <mxCell id="JlhMlqs5VJqomyMm_BVr-33" value="" style="endArrow=none;html=1;rounded=0;strokeWidth=3;strokeColor=#ff0000;" edge="1" parent="1">
          <mxGeometry width="50" height="50" relative="1" as="geometry">
            <mxPoint x="520" y="140" as="sourcePoint" />
            <mxPoint x="435" y="139.5" as="targetPoint" />
          </mxGeometry>
        </mxCell>
        <mxCell id="JlhMlqs5VJqomyMm_BVr-34" value="" style="endArrow=none;html=1;rounded=0;strokeWidth=3;strokeColor=#000000;" edge="1" parent="1">
          <mxGeometry width="50" height="50" relative="1" as="geometry">
            <mxPoint x="520" y="160" as="sourcePoint" />
            <mxPoint x="435" y="159.5" as="targetPoint" />
          </mxGeometry>
        </mxCell>
        <mxCell id="JlhMlqs5VJqomyMm_BVr-35" value="Z DC Motor" style="ellipse;whiteSpace=wrap;html=1;aspect=fixed;" vertex="1" parent="1">
          <mxGeometry x="520" y="110" width="80" height="80" as="geometry" />
        </mxCell>
        <mxCell id="JlhMlqs5VJqomyMm_BVr-37" value="" style="endArrow=none;html=1;rounded=0;strokeWidth=1;strokeColor=#0000ff;" edge="1" parent="1">
          <mxGeometry width="50" height="50" relative="1" as="geometry">
            <mxPoint x="400" y="380" as="sourcePoint" />
            <mxPoint x="400" y="180" as="targetPoint" />
          </mxGeometry>
        </mxCell>
        <mxCell id="JlhMlqs5VJqomyMm_BVr-38" value="" style="endArrow=none;html=1;rounded=0;strokeWidth=1;strokeColor=#0000ff;" edge="1" parent="1">
          <mxGeometry width="50" height="50" relative="1" as="geometry">
            <mxPoint x="410" y="380" as="sourcePoint" />
            <mxPoint x="410" y="180" as="targetPoint" />
          </mxGeometry>
        </mxCell>
        <mxCell id="JlhMlqs5VJqomyMm_BVr-40" value="" style="endArrow=none;html=1;rounded=0;strokeWidth=1;strokeColor=#0000ff;" edge="1" parent="1">
          <mxGeometry width="50" height="50" relative="1" as="geometry">
            <mxPoint x="420" y="380" as="sourcePoint" />
            <mxPoint x="420" y="180" as="targetPoint" />
          </mxGeometry>
        </mxCell>
        <mxCell id="JlhMlqs5VJqomyMm_BVr-41" value="" style="endArrow=none;html=1;rounded=0;strokeWidth=1;strokeColor=#0000ff;" edge="1" parent="1">
          <mxGeometry width="50" height="50" relative="1" as="geometry">
            <mxPoint x="430" y="380" as="sourcePoint" />
            <mxPoint x="430" y="180" as="targetPoint" />
          </mxGeometry>
        </mxCell>
        <mxCell id="JlhMlqs5VJqomyMm_BVr-42" value="" style="endArrow=classic;startArrow=classic;html=1;rounded=0;" edge="1" parent="1">
          <mxGeometry width="50" height="50" relative="1" as="geometry">
            <mxPoint x="460" y="160" as="sourcePoint" />
            <mxPoint x="460" y="140" as="targetPoint" />
          </mxGeometry>
        </mxCell>
        <mxCell id="JlhMlqs5VJqomyMm_BVr-43" value="" style="endArrow=classic;startArrow=classic;html=1;rounded=0;" edge="1" parent="1">
          <mxGeometry width="50" height="50" relative="1" as="geometry">
            <mxPoint x="180" y="160" as="sourcePoint" />
            <mxPoint x="180" y="140" as="targetPoint" />
          </mxGeometry>
        </mxCell>
        <mxCell id="JlhMlqs5VJqomyMm_BVr-45" value="" style="endArrow=none;html=1;rounded=0;strokeWidth=3;strokeColor=#ff0000;entryX=0.5;entryY=0;entryDx=0;entryDy=0;" edge="1" parent="1" target="JlhMlqs5VJqomyMm_BVr-3">
          <mxGeometry width="50" height="50" relative="1" as="geometry">
            <mxPoint x="80" y="220" as="sourcePoint" />
            <mxPoint x="150" y="280" as="targetPoint" />
          </mxGeometry>
        </mxCell>
        <mxCell id="JlhMlqs5VJqomyMm_BVr-46" value="" style="endArrow=none;html=1;rounded=0;strokeWidth=3;strokeColor=#ff0000;" edge="1" parent="1">
          <mxGeometry width="50" height="50" relative="1" as="geometry">
            <mxPoint x="80" y="220" as="sourcePoint" />
            <mxPoint x="140" y="220" as="targetPoint" />
          </mxGeometry>
        </mxCell>
        <mxCell id="JlhMlqs5VJqomyMm_BVr-47" value="" style="endArrow=none;html=1;rounded=0;strokeWidth=3;strokeColor=#ff0000;" edge="1" parent="1">
          <mxGeometry width="50" height="50" relative="1" as="geometry">
            <mxPoint x="140" y="220" as="sourcePoint" />
            <mxPoint x="140" y="270" as="targetPoint" />
          </mxGeometry>
        </mxCell>
        <mxCell id="JlhMlqs5VJqomyMm_BVr-48" value="" style="endArrow=none;html=1;rounded=0;strokeWidth=3;strokeColor=#000000;exitX=0.5;exitY=1;exitDx=0;exitDy=0;" edge="1" parent="1" source="JlhMlqs5VJqomyMm_BVr-3">
          <mxGeometry width="50" height="50" relative="1" as="geometry">
            <mxPoint x="90" y="230" as="sourcePoint" />
            <mxPoint x="80" y="340" as="targetPoint" />
          </mxGeometry>
        </mxCell>
        <mxCell id="JlhMlqs5VJqomyMm_BVr-49" value="" style="endArrow=none;html=1;rounded=0;strokeWidth=3;strokeColor=#000000;" edge="1" parent="1">
          <mxGeometry width="50" height="50" relative="1" as="geometry">
            <mxPoint x="80" y="340" as="sourcePoint" />
            <mxPoint x="140" y="340" as="targetPoint" />
          </mxGeometry>
        </mxCell>
        <mxCell id="JlhMlqs5VJqomyMm_BVr-50" value="" style="endArrow=none;html=1;rounded=0;strokeWidth=3;strokeColor=#000000;" edge="1" parent="1">
          <mxGeometry width="50" height="50" relative="1" as="geometry">
            <mxPoint x="140" y="290" as="sourcePoint" />
            <mxPoint x="140" y="340" as="targetPoint" />
          </mxGeometry>
        </mxCell>
        <mxCell id="JlhMlqs5VJqomyMm_BVr-52" value="Arm&lt;br&gt;Servo" style="ellipse;whiteSpace=wrap;html=1;aspect=fixed;" vertex="1" parent="1">
          <mxGeometry x="460" y="300" width="60" height="60" as="geometry" />
        </mxCell>
        <mxCell id="JlhMlqs5VJqomyMm_BVr-53" value="Optic Sensor" style="whiteSpace=wrap;html=1;aspect=fixed;" vertex="1" parent="1">
          <mxGeometry x="559" y="300" width="60" height="60" as="geometry" />
        </mxCell>
        <mxCell id="JlhMlqs5VJqomyMm_BVr-56" value="" style="endArrow=none;html=1;rounded=0;strokeWidth=2;strokeColor=#ff0000;" edge="1" parent="1" target="JlhMlqs5VJqomyMm_BVr-55">
          <mxGeometry width="50" height="50" relative="1" as="geometry">
            <mxPoint x="780" y="270" as="sourcePoint" />
            <mxPoint x="350" y="269.5" as="targetPoint" />
          </mxGeometry>
        </mxCell>
        <mxCell id="JlhMlqs5VJqomyMm_BVr-55" value="" style="shape=waypoint;sketch=0;fillStyle=solid;size=6;pointerEvents=1;points=[];fillColor=none;resizable=0;rotatable=0;perimeter=centerPerimeter;snapToPoint=1;strokeColor=#ff0000;strokeWidth=2;" vertex="1" parent="1">
          <mxGeometry x="470" y="260" width="20" height="20" as="geometry" />
        </mxCell>
        <mxCell id="JlhMlqs5VJqomyMm_BVr-57" value="" style="endArrow=none;html=1;rounded=0;strokeWidth=2;strokeColor=#ff0000;targetPerimeterSpacing=0;entryX=0.6;entryY=0.6;entryDx=0;entryDy=0;entryPerimeter=0;" edge="1" parent="1" target="JlhMlqs5VJqomyMm_BVr-55">
          <mxGeometry width="50" height="50" relative="1" as="geometry">
            <mxPoint x="480" y="300" as="sourcePoint" />
            <mxPoint x="387" y="190" as="targetPoint" />
          </mxGeometry>
        </mxCell>
        <mxCell id="JlhMlqs5VJqomyMm_BVr-58" value="" style="endArrow=none;html=1;rounded=0;strokeWidth=2;strokeColor=#000000;targetPerimeterSpacing=0;" edge="1" parent="1" source="JlhMlqs5VJqomyMm_BVr-59">
          <mxGeometry width="50" height="50" relative="1" as="geometry">
            <mxPoint x="500" y="300" as="sourcePoint" />
            <mxPoint x="500" y="290" as="targetPoint" />
          </mxGeometry>
        </mxCell>
        <mxCell id="JlhMlqs5VJqomyMm_BVr-60" value="" style="endArrow=none;html=1;rounded=0;strokeWidth=2;strokeColor=#000000;targetPerimeterSpacing=0;" edge="1" parent="1" target="JlhMlqs5VJqomyMm_BVr-59">
          <mxGeometry width="50" height="50" relative="1" as="geometry">
            <mxPoint x="500" y="300" as="sourcePoint" />
            <mxPoint x="500" y="290" as="targetPoint" />
          </mxGeometry>
        </mxCell>
        <mxCell id="JlhMlqs5VJqomyMm_BVr-61" value="" style="endArrow=none;html=1;rounded=0;strokeWidth=2;strokeColor=#ff0000;targetPerimeterSpacing=0;entryX=0.6;entryY=0.6;entryDx=0;entryDy=0;entryPerimeter=0;" edge="1" parent="1" source="JlhMlqs5VJqomyMm_BVr-62">
          <mxGeometry width="50" height="50" relative="1" as="geometry">
            <mxPoint x="580" y="300" as="sourcePoint" />
            <mxPoint x="580" y="270" as="targetPoint" />
          </mxGeometry>
        </mxCell>
        <mxCell id="JlhMlqs5VJqomyMm_BVr-63" value="" style="endArrow=none;html=1;rounded=0;strokeWidth=2;strokeColor=#ff0000;targetPerimeterSpacing=0;entryDx=0;entryDy=0;entryPerimeter=0;" edge="1" parent="1" target="JlhMlqs5VJqomyMm_BVr-62">
          <mxGeometry width="50" height="50" relative="1" as="geometry">
            <mxPoint x="580" y="300" as="sourcePoint" />
            <mxPoint x="580" y="270" as="targetPoint" />
          </mxGeometry>
        </mxCell>
        <mxCell id="JlhMlqs5VJqomyMm_BVr-62" value="" style="shape=waypoint;sketch=0;fillStyle=solid;size=6;pointerEvents=1;points=[];fillColor=none;resizable=0;rotatable=0;perimeter=centerPerimeter;snapToPoint=1;strokeColor=#ff0000;strokeWidth=2;" vertex="1" parent="1">
          <mxGeometry x="570" y="260" width="20" height="20" as="geometry" />
        </mxCell>
        <mxCell id="JlhMlqs5VJqomyMm_BVr-65" value="" style="endArrow=none;html=1;rounded=0;exitDx=0;exitDy=0;strokeWidth=2;exitPerimeter=0;" edge="1" parent="1" source="JlhMlqs5VJqomyMm_BVr-59" target="JlhMlqs5VJqomyMm_BVr-64">
          <mxGeometry width="50" height="50" relative="1" as="geometry">
            <mxPoint x="350" y="289.5" as="sourcePoint" />
            <mxPoint x="820" y="290" as="targetPoint" />
          </mxGeometry>
        </mxCell>
        <mxCell id="JlhMlqs5VJqomyMm_BVr-66" value="" style="endArrow=none;html=1;rounded=0;strokeWidth=2;strokeColor=#000000;targetPerimeterSpacing=0;" edge="1" parent="1" source="JlhMlqs5VJqomyMm_BVr-64">
          <mxGeometry width="50" height="50" relative="1" as="geometry">
            <mxPoint x="600" y="300" as="sourcePoint" />
            <mxPoint x="600" y="290" as="targetPoint" />
          </mxGeometry>
        </mxCell>
        <mxCell id="JlhMlqs5VJqomyMm_BVr-67" value="" style="endArrow=none;html=1;rounded=0;exitX=0.008;exitY=0.65;exitDx=0;exitDy=0;strokeWidth=2;exitPerimeter=0;" edge="1" parent="1" target="JlhMlqs5VJqomyMm_BVr-59">
          <mxGeometry width="50" height="50" relative="1" as="geometry">
            <mxPoint x="350" y="289.5" as="sourcePoint" />
            <mxPoint x="600" y="290" as="targetPoint" />
          </mxGeometry>
        </mxCell>
        <mxCell id="JlhMlqs5VJqomyMm_BVr-59" value="" style="shape=waypoint;sketch=0;fillStyle=solid;size=6;pointerEvents=1;points=[];fillColor=none;resizable=0;rotatable=0;perimeter=centerPerimeter;snapToPoint=1;strokeColor=#000000;strokeWidth=2;" vertex="1" parent="1">
          <mxGeometry x="490" y="280" width="20" height="20" as="geometry" />
        </mxCell>
        <mxCell id="JlhMlqs5VJqomyMm_BVr-68" value="" style="endArrow=none;html=1;rounded=0;strokeWidth=2;strokeColor=#000000;targetPerimeterSpacing=0;" edge="1" parent="1" target="JlhMlqs5VJqomyMm_BVr-64">
          <mxGeometry width="50" height="50" relative="1" as="geometry">
            <mxPoint x="600" y="300" as="sourcePoint" />
            <mxPoint x="600" y="290" as="targetPoint" />
          </mxGeometry>
        </mxCell>
        <mxCell id="JlhMlqs5VJqomyMm_BVr-64" value="" style="shape=waypoint;sketch=0;fillStyle=solid;size=6;pointerEvents=1;points=[];fillColor=none;resizable=0;rotatable=0;perimeter=centerPerimeter;snapToPoint=1;strokeColor=#000000;strokeWidth=2;" vertex="1" parent="1">
          <mxGeometry x="590" y="280" width="20" height="20" as="geometry" />
        </mxCell>
        <mxCell id="JlhMlqs5VJqomyMm_BVr-69" value="" style="endArrow=none;html=1;rounded=0;strokeWidth=1;strokeColor=#0000ff;" edge="1" parent="1">
          <mxGeometry width="50" height="50" relative="1" as="geometry">
            <mxPoint x="490" y="380" as="sourcePoint" />
            <mxPoint x="490" y="360" as="targetPoint" />
          </mxGeometry>
        </mxCell>
        <mxCell id="JlhMlqs5VJqomyMm_BVr-71" value="" style="endArrow=none;html=1;rounded=0;strokeWidth=1;strokeColor=#0000ff;" edge="1" parent="1">
          <mxGeometry width="50" height="50" relative="1" as="geometry">
            <mxPoint x="588.5" y="380" as="sourcePoint" />
            <mxPoint x="588.5" y="360" as="targetPoint" />
          </mxGeometry>
        </mxCell>
        <mxCell id="JlhMlqs5VJqomyMm_BVr-72" value="Spin Servo" style="ellipse;whiteSpace=wrap;html=1;aspect=fixed;" vertex="1" parent="1">
          <mxGeometry x="700" y="460" width="60" height="60" as="geometry" />
        </mxCell>
        <mxCell id="JlhMlqs5VJqomyMm_BVr-73" value="Grip&lt;br&gt;Servo" style="ellipse;whiteSpace=wrap;html=1;aspect=fixed;" vertex="1" parent="1">
          <mxGeometry x="700" y="390" width="60" height="60" as="geometry" />
        </mxCell>
        <mxCell id="JlhMlqs5VJqomyMm_BVr-74" value="Color Sensor" style="whiteSpace=wrap;html=1;aspect=fixed;" vertex="1" parent="1">
          <mxGeometry x="700" y="320" width="60" height="60" as="geometry" />
        </mxCell>
        <mxCell id="JlhMlqs5VJqomyMm_BVr-76" value="" style="endArrow=none;html=1;rounded=0;strokeWidth=2;" edge="1" parent="1" source="JlhMlqs5VJqomyMm_BVr-95">
          <mxGeometry width="50" height="50" relative="1" as="geometry">
            <mxPoint x="800" y="520" as="sourcePoint" />
            <mxPoint x="800" y="290" as="targetPoint" />
          </mxGeometry>
        </mxCell>
        <mxCell id="JlhMlqs5VJqomyMm_BVr-77" value="" style="endArrow=none;html=1;rounded=0;strokeWidth=2;" edge="1" parent="1" source="JlhMlqs5VJqomyMm_BVr-93">
          <mxGeometry width="50" height="50" relative="1" as="geometry">
            <mxPoint x="760" y="360" as="sourcePoint" />
            <mxPoint x="800" y="360" as="targetPoint" />
          </mxGeometry>
        </mxCell>
        <mxCell id="JlhMlqs5VJqomyMm_BVr-78" value="" style="endArrow=none;html=1;rounded=0;strokeWidth=2;" edge="1" parent="1">
          <mxGeometry width="50" height="50" relative="1" as="geometry">
            <mxPoint x="760" y="430" as="sourcePoint" />
            <mxPoint x="800" y="430" as="targetPoint" />
          </mxGeometry>
        </mxCell>
        <mxCell id="JlhMlqs5VJqomyMm_BVr-79" value="" style="endArrow=none;html=1;rounded=0;strokeWidth=2;" edge="1" parent="1">
          <mxGeometry width="50" height="50" relative="1" as="geometry">
            <mxPoint x="760" y="499" as="sourcePoint" />
            <mxPoint x="800" y="499" as="targetPoint" />
          </mxGeometry>
        </mxCell>
        <mxCell id="JlhMlqs5VJqomyMm_BVr-80" value="" style="endArrow=none;html=1;rounded=0;strokeWidth=2;strokeColor=#ff0000;" edge="1" parent="1" source="JlhMlqs5VJqomyMm_BVr-85">
          <mxGeometry width="50" height="50" relative="1" as="geometry">
            <mxPoint x="780" y="340" as="sourcePoint" />
            <mxPoint x="760" y="340" as="targetPoint" />
          </mxGeometry>
        </mxCell>
        <mxCell id="JlhMlqs5VJqomyMm_BVr-81" value="" style="endArrow=none;html=1;rounded=0;strokeWidth=2;strokeColor=#ff0000;" edge="1" parent="1">
          <mxGeometry width="50" height="50" relative="1" as="geometry">
            <mxPoint x="780" y="410" as="sourcePoint" />
            <mxPoint x="760" y="410" as="targetPoint" />
          </mxGeometry>
        </mxCell>
        <mxCell id="JlhMlqs5VJqomyMm_BVr-82" value="" style="endArrow=none;html=1;rounded=0;strokeWidth=2;strokeColor=#ff0000;" edge="1" parent="1">
          <mxGeometry width="50" height="50" relative="1" as="geometry">
            <mxPoint x="780" y="480" as="sourcePoint" />
            <mxPoint x="760" y="480" as="targetPoint" />
          </mxGeometry>
        </mxCell>
        <mxCell id="JlhMlqs5VJqomyMm_BVr-86" value="" style="endArrow=none;html=1;rounded=0;strokeWidth=2;strokeColor=#ff0000;" edge="1" parent="1" target="JlhMlqs5VJqomyMm_BVr-85">
          <mxGeometry width="50" height="50" relative="1" as="geometry">
            <mxPoint x="780" y="340" as="sourcePoint" />
            <mxPoint x="760" y="340" as="targetPoint" />
          </mxGeometry>
        </mxCell>
        <mxCell id="JlhMlqs5VJqomyMm_BVr-85" value="" style="shape=waypoint;sketch=0;fillStyle=solid;size=6;pointerEvents=1;points=[];fillColor=none;resizable=0;rotatable=0;perimeter=centerPerimeter;snapToPoint=1;strokeColor=#ff0000;strokeWidth=2;" vertex="1" parent="1">
          <mxGeometry x="770" y="330" width="20" height="20" as="geometry" />
        </mxCell>
        <mxCell id="JlhMlqs5VJqomyMm_BVr-88" value="" style="endArrow=none;html=1;rounded=0;strokeWidth=2;strokeColor=#ff0000;" edge="1" parent="1" target="JlhMlqs5VJqomyMm_BVr-84">
          <mxGeometry width="50" height="50" relative="1" as="geometry">
            <mxPoint x="780" y="270" as="sourcePoint" />
            <mxPoint x="780" y="520" as="targetPoint" />
          </mxGeometry>
        </mxCell>
        <mxCell id="JlhMlqs5VJqomyMm_BVr-84" value="" style="shape=waypoint;sketch=0;fillStyle=solid;size=6;pointerEvents=1;points=[];fillColor=none;resizable=0;rotatable=0;perimeter=centerPerimeter;snapToPoint=1;strokeColor=#ff0000;strokeWidth=2;" vertex="1" parent="1">
          <mxGeometry x="770" y="400" width="20" height="20" as="geometry" />
        </mxCell>
        <mxCell id="JlhMlqs5VJqomyMm_BVr-89" value="" style="endArrow=none;html=1;rounded=0;strokeWidth=2;strokeColor=#ff0000;" edge="1" parent="1" source="JlhMlqs5VJqomyMm_BVr-84">
          <mxGeometry width="50" height="50" relative="1" as="geometry">
            <mxPoint x="780" y="410" as="sourcePoint" />
            <mxPoint x="780" y="480" as="targetPoint" />
          </mxGeometry>
        </mxCell>
        <mxCell id="JlhMlqs5VJqomyMm_BVr-94" value="" style="endArrow=none;html=1;rounded=0;strokeWidth=2;" edge="1" parent="1" target="JlhMlqs5VJqomyMm_BVr-93">
          <mxGeometry width="50" height="50" relative="1" as="geometry">
            <mxPoint x="760" y="360" as="sourcePoint" />
            <mxPoint x="800" y="360" as="targetPoint" />
          </mxGeometry>
        </mxCell>
        <mxCell id="JlhMlqs5VJqomyMm_BVr-93" value="" style="shape=waypoint;sketch=0;fillStyle=solid;size=6;pointerEvents=1;points=[];fillColor=none;resizable=0;rotatable=0;perimeter=centerPerimeter;snapToPoint=1;strokeColor=#000000;strokeWidth=2;" vertex="1" parent="1">
          <mxGeometry x="790" y="350" width="20" height="20" as="geometry" />
        </mxCell>
        <mxCell id="JlhMlqs5VJqomyMm_BVr-96" value="" style="endArrow=none;html=1;rounded=0;strokeWidth=2;" edge="1" parent="1" target="JlhMlqs5VJqomyMm_BVr-95">
          <mxGeometry width="50" height="50" relative="1" as="geometry">
            <mxPoint x="800" y="500" as="sourcePoint" />
            <mxPoint x="800" y="290" as="targetPoint" />
          </mxGeometry>
        </mxCell>
        <mxCell id="JlhMlqs5VJqomyMm_BVr-95" value="" style="shape=waypoint;sketch=0;fillStyle=solid;size=6;pointerEvents=1;points=[];fillColor=none;resizable=0;rotatable=0;perimeter=centerPerimeter;snapToPoint=1;strokeColor=#000000;strokeWidth=2;" vertex="1" parent="1">
          <mxGeometry x="790" y="420" width="20" height="20" as="geometry" />
        </mxCell>
        <mxCell id="JlhMlqs5VJqomyMm_BVr-104" value="" style="endArrow=none;html=1;rounded=0;strokeWidth=1;strokeColor=#0000ff;" edge="1" parent="1">
          <mxGeometry width="50" height="50" relative="1" as="geometry">
            <mxPoint x="630" y="399" as="sourcePoint" />
            <mxPoint x="680" y="399" as="targetPoint" />
          </mxGeometry>
        </mxCell>
        <mxCell id="JlhMlqs5VJqomyMm_BVr-105" value="" style="endArrow=none;html=1;rounded=0;strokeWidth=1;strokeColor=#0000ff;" edge="1" parent="1">
          <mxGeometry width="50" height="50" relative="1" as="geometry">
            <mxPoint x="630" y="420" as="sourcePoint" />
            <mxPoint x="700" y="420" as="targetPoint" />
          </mxGeometry>
        </mxCell>
        <mxCell id="JlhMlqs5VJqomyMm_BVr-106" value="" style="endArrow=none;html=1;rounded=0;strokeWidth=1;strokeColor=#0000ff;" edge="1" parent="1">
          <mxGeometry width="50" height="50" relative="1" as="geometry">
            <mxPoint x="630" y="489" as="sourcePoint" />
            <mxPoint x="700" y="489" as="targetPoint" />
          </mxGeometry>
        </mxCell>
        <mxCell id="JlhMlqs5VJqomyMm_BVr-107" value="" style="endArrow=none;html=1;rounded=0;strokeWidth=1;strokeColor=#0000ff;" edge="1" parent="1">
          <mxGeometry width="50" height="50" relative="1" as="geometry">
            <mxPoint x="680" y="349" as="sourcePoint" />
            <mxPoint x="700" y="349" as="targetPoint" />
          </mxGeometry>
        </mxCell>
        <mxCell id="JlhMlqs5VJqomyMm_BVr-108" value="" style="endArrow=none;html=1;rounded=0;strokeWidth=1;strokeColor=#0000ff;" edge="1" parent="1">
          <mxGeometry width="50" height="50" relative="1" as="geometry">
            <mxPoint x="680" y="400" as="sourcePoint" />
            <mxPoint x="680" y="350" as="targetPoint" />
          </mxGeometry>
        </mxCell>
        <mxCell id="JlhMlqs5VJqomyMm_BVr-109" value="Legend" style="rounded=0;whiteSpace=wrap;html=1;" vertex="1" parent="1">
          <mxGeometry x="690" y="60" width="120" height="20" as="geometry" />
        </mxCell>
        <mxCell id="JlhMlqs5VJqomyMm_BVr-110" value="12V Power&lt;br&gt;&lt;br&gt;5V Power&lt;br&gt;&lt;br&gt;Signal" style="rounded=0;whiteSpace=wrap;html=1;align=left;" vertex="1" parent="1">
          <mxGeometry x="690" y="80" width="120" height="80" as="geometry" />
        </mxCell>
        <mxCell id="JlhMlqs5VJqomyMm_BVr-111" value="" style="endArrow=none;html=1;rounded=0;strokeWidth=3;strokeColor=#000000;" edge="1" parent="1">
          <mxGeometry width="50" height="50" relative="1" as="geometry">
            <mxPoint x="790" y="95" as="sourcePoint" />
            <mxPoint x="760" y="95" as="targetPoint" />
          </mxGeometry>
        </mxCell>
        <mxCell id="JlhMlqs5VJqomyMm_BVr-112" value="" style="endArrow=none;html=1;rounded=0;strokeWidth=3;strokeColor=#ff0000;" edge="1" parent="1">
          <mxGeometry width="50" height="50" relative="1" as="geometry">
            <mxPoint x="790" y="87" as="sourcePoint" />
            <mxPoint x="760" y="87" as="targetPoint" />
          </mxGeometry>
        </mxCell>
        <mxCell id="JlhMlqs5VJqomyMm_BVr-113" value="" style="endArrow=none;html=1;rounded=0;strokeWidth=2;strokeColor=#000000;" edge="1" parent="1">
          <mxGeometry width="50" height="50" relative="1" as="geometry">
            <mxPoint x="789" y="125" as="sourcePoint" />
            <mxPoint x="759" y="125" as="targetPoint" />
          </mxGeometry>
        </mxCell>
        <mxCell id="JlhMlqs5VJqomyMm_BVr-114" value="" style="endArrow=none;html=1;rounded=0;strokeWidth=2;strokeColor=#ff0000;" edge="1" parent="1">
          <mxGeometry width="50" height="50" relative="1" as="geometry">
            <mxPoint x="789" y="118" as="sourcePoint" />
            <mxPoint x="759" y="118" as="targetPoint" />
          </mxGeometry>
        </mxCell>
        <mxCell id="JlhMlqs5VJqomyMm_BVr-115" value="" style="endArrow=none;html=1;rounded=0;strokeWidth=1;strokeColor=#0000ff;" edge="1" parent="1">
          <mxGeometry width="50" height="50" relative="1" as="geometry">
            <mxPoint x="788" y="150" as="sourcePoint" />
            <mxPoint x="758" y="150" as="targetPoint" />
          </mxGeometry>
        </mxCell>
        <mxCell id="JlhMlqs5VJqomyMm_BVr-116" value="&lt;font style=&quot;font-size: 18px;&quot;&gt;Stationary&lt;/font&gt;" style="text;html=1;strokeColor=none;fillColor=none;align=center;verticalAlign=middle;whiteSpace=wrap;rounded=0;" vertex="1" parent="1">
          <mxGeometry x="30" y="60" width="100" height="30" as="geometry" />
        </mxCell>
        <mxCell id="JlhMlqs5VJqomyMm_BVr-117" value="&lt;span style=&quot;font-size: 18px;&quot;&gt;Traverse&lt;/span&gt;" style="text;html=1;strokeColor=none;fillColor=none;align=center;verticalAlign=middle;whiteSpace=wrap;rounded=0;" vertex="1" parent="1">
          <mxGeometry x="360" y="60" width="100" height="30" as="geometry" />
        </mxCell>
        <mxCell id="JlhMlqs5VJqomyMm_BVr-119" value="&lt;font style=&quot;font-size: 18px;&quot;&gt;Arm&lt;/font&gt;" style="text;html=1;strokeColor=none;fillColor=none;align=center;verticalAlign=middle;whiteSpace=wrap;rounded=0;" vertex="1" parent="1">
          <mxGeometry x="690" y="200" width="100" height="30" as="geometry" />
        </mxCell>
        <mxCell id="JlhMlqs5VJqomyMm_BVr-120" value="" style="endArrow=none;dashed=1;html=1;dashPattern=1 3;strokeWidth=1;rounded=0;" edge="1" parent="1">
          <mxGeometry width="50" height="50" relative="1" as="geometry">
            <mxPoint x="660" y="520" as="sourcePoint" />
            <mxPoint x="660" y="50" as="targetPoint" />
          </mxGeometry>
        </mxCell>
        <mxCell id="JlhMlqs5VJqomyMm_BVr-121" value="" style="endArrow=none;dashed=1;html=1;dashPattern=1 3;strokeWidth=1;rounded=0;" edge="1" parent="1">
          <mxGeometry width="50" height="50" relative="1" as="geometry">
            <mxPoint x="840" y="190" as="sourcePoint" />
            <mxPoint x="660" y="190" as="targetPoint" />
          </mxGeometry>
        </mxCell>
      </root>
    </mxGraphModel>
  </diagram>
</mxfile>
